<svg xmlns="http://www.w3.org/2000/svg" xmlns:xlink="http://www.w3.org/1999/xlink"
    width="28.800048828125" height="28.810791015625" viewBox="0 0 28.800048828125 28.810791015625"
    fill="none">
    <path stroke="rgba(128, 128, 128, 1)" stroke-width="2" stroke-linecap="round"
        d="M3.59998 25.2094L25.2 25.2094"></path>
    <path stroke="rgba(128, 128, 128, 1)" stroke-width="2" stroke-linecap="round"
        d="M4.19995 21.6081L24.5999 21.6081"></path>
    <path fill="rgba(128, 128, 128, 1)"
        d="M3.80005 15.8459M3.80005 15.8459Q3.80005 13.8643 4.64936 12.0564Q5.46392 10.3225 6.94271 8.99107Q8.41014 7.66989 10.3074 6.94739Q12.263 6.2027 14.4 6.2027Q16.5371 6.2027 18.4927 6.94739Q20.39 7.66989 21.8574 8.99107Q23.3362 10.3225 24.1507 12.0564Q25 13.8643 25 15.8459L25 20.4076C25 21.6229 24.0149 22.6081 22.7996 22.6081L14.4 22.6081L6.0005 22.6081C4.78522 22.6081 3.80005 21.6229 3.80005 20.4076L3.80005 15.8459ZM5.80005 15.8459L5.80005 20.4076C5.80005 20.5183 5.88979 20.6081 6.0005 20.6081L14.4 20.6081L22.7996 20.6081C22.9103 20.6081 23 20.5183 23 20.4076L23 15.8459Q23 14.3107 22.3405 12.9068Q21.6977 11.5385 20.5192 10.4774Q19.3292 9.40607 17.7809 8.81646Q16.1692 8.2027 14.4 8.2027Q12.6309 8.2027 11.0192 8.81646Q9.47085 9.40607 8.28092 10.4774Q7.10235 11.5385 6.45956 12.9068Q5.80005 14.3107 5.80005 15.8459Z"></path>
    <path stroke="rgba(128, 128, 128, 1)" stroke-width="2" stroke-linecap="round"
        d="M10.2 15.0056L10.2 17.4065"></path>
    <path stroke="rgba(128, 128, 128, 1)" stroke-width="2"
        d="M16.8 7.2027L16.8 6.00225C16.8 4.67627 15.7255 3.60135 14.4 3.60135C13.0745 3.60135 12 4.67627 12 6.00225L12 7.2027"></path>
</svg>