<svg xmlns="http://www.w3.org/2000/svg" xmlns:xlink="http://www.w3.org/1999/xlink" width="24"
    height="24" viewBox="0 0 24 24" fill="none">
    <path fill="rgba(128, 128, 128, 1)"
        d="M5 1L19 1C20.1046 1 21 1.89543 21 3L21 21C21 22.1046 20.1046 23 19 23L5 23C3.89543 23 3 22.1046 3 21L3 3C3 1.89543 3.89543 1 5 1ZM5 3C5 3 5 3 5 3L5 21C5 21 5 21 5 21L19 21C19 21 19 21 19 21L19 3C19 3 19 3 19 3L5 3Z"></path>
    <path stroke="rgba(128, 128, 128, 1)" stroke-width="2" stroke-linejoin="round"
        stroke-linecap="round" d="M10.5 7L16.5 7"></path>
    <path stroke="rgba(128, 128, 128, 1)" stroke-width="2" stroke-linejoin="round"
        stroke-linecap="round" d="M10.5 12L16.5 12"></path>
    <path stroke="rgba(128, 128, 128, 1)" stroke-width="2" stroke-linejoin="round"
        stroke-linecap="round" d="M10.5 17L16.5 17"></path>
    <path
        d="M7.5 8C8.0523 8 8.5 7.5523 8.5 7C8.5 6.4477 8.0523 6 7.5 6C6.9477 6 6.5 6.4477 6.5 7C6.5 7.5523 6.9477 8 7.5 8Z"
        fill-rule="evenodd" fill="#808080"></path>
    <path
        d="M7.5 13C8.0523 13 8.5 12.5523 8.5 12C8.5 11.4477 8.0523 11 7.5 11C6.9477 11 6.5 11.4477 6.5 12C6.5 12.5523 6.9477 13 7.5 13Z"
        fill-rule="evenodd" fill="#808080"></path>
    <path
        d="M7.5 18C8.0523 18 8.5 17.5523 8.5 17C8.5 16.4477 8.0523 16 7.5 16C6.9477 16 6.5 16.4477 6.5 17C6.5 17.5523 6.9477 18 7.5 18Z"
        fill-rule="evenodd" fill="#808080"></path>
</svg>